# xmcd
#
# Track frame offsets:
#	150
#	137505
#	180816
#
# Disc length: 3156 seconds
#
# Revision: 0
# Processed by: cddbd v1.4PL0 Copyright (c) Steve Scherf et al.
# Submitted via: EasyCDDAExtractor 4.6.9.1
#
DISCID=180c5203
DTITLE=String Cheese Incident - 02-09-21 Disc 3
DYEAR=2002
DGENRE=Bluegrass
TTITLE0=Way Back Home > On the Road > Way Back Home
TTITLE1=Walls of Time
TTITLE2=Round the Wheel
EXTD=University of Utah Union Plaza\nTaped by\nJoe Billerback of Phoenix\njbil
EXTD=lerb@cox.net\nNeumann KM-184's>Shure FP-24>Tascam DAP1\nTagged by MaLaCoi
EXTD=D
EXTT0=
EXTT1=
EXTT2=
PLAYORDER=
